<svg xmlns="http://www.w3.org/2000/svg" xmlns:xlink="http://www.w3.org/1999/xlink" width="250" zoomAndPan="magnify" viewBox="0 0 187.5 112.499997" height="150" preserveAspectRatio="xMidYMid meet" version="1.2"><g id="655adcc191"><path style=" stroke:none;fill-rule:nonzero;fill:#000000;fill-opacity:1;" d="M 60.992188 5.703125 L 71.292969 5.703125 L 71.292969 6.015625 L 70.042969 6.015625 L 70.042969 6.324219 L 68.792969 6.324219 L 68.792969 6.636719 L 67.859375 6.636719 L 67.859375 6.949219 L 67.234375 6.949219 L 67.234375 7.261719 L 66.296875 7.261719 L 66.296875 7.574219 L 65.671875 7.574219 L 65.671875 7.886719 L 65.050781 7.886719 L 65.050781 8.199219 L 64.738281 8.199219 L 64.738281 8.511719 L 64.113281 8.511719 L 64.113281 8.824219 L 63.800781 8.824219 L 63.800781 9.136719 L 63.175781 9.136719 L 63.175781 9.445312 L 62.863281 9.445312 L 62.863281 9.757812 L 62.550781 9.757812 L 62.550781 10.070312 L 62.242188 10.070312 L 62.242188 10.382812 L 61.617188 10.382812 L 61.617188 10.695312 L 61.304688 10.695312 L 61.304688 11.007812 L 60.992188 11.007812 L 60.992188 11.320312 L 60.679688 11.320312 L 60.679688 11.945312 L 60.367188 11.945312 L 60.367188 12.257812 L 60.054688 12.257812 L 60.054688 12.566406 L 59.742188 12.566406 L 59.742188 12.878906 L 59.429688 12.878906 L 59.429688 13.503906 L 59.121094 13.503906 L 59.121094 14.128906 L 58.808594 14.128906 L 58.808594 14.753906 L 58.496094 14.753906 L 58.496094 15.066406 L 58.183594 15.066406 L 58.183594 15.6875 L 57.871094 15.6875 L 57.871094 16.3125 L 57.558594 16.3125 L 57.558594 16.9375 L 57.246094 16.9375 L 57.246094 17.25 L 56.933594 17.25 L 56.933594 17.875 L 56.621094 17.875 L 56.621094 18.5 L 56.308594 18.5 L 56.308594 19.121094 L 56 19.121094 L 56 19.433594 L 55.6875 19.433594 L 55.6875 20.058594 L 55.375 20.058594 L 55.375 20.683594 L 55.0625 20.683594 L 55.0625 21.308594 L 54.75 21.308594 L 54.75 21.621094 L 54.4375 21.621094 L 54.4375 22.242188 L 54.125 22.242188 L 54.125 22.867188 L 53.8125 22.867188 L 53.8125 23.492188 L 53.5 23.492188 L 53.5 24.117188 L 53.1875 24.117188 L 53.1875 24.429688 L 52.878906 24.429688 L 52.878906 25.050781 L 52.566406 25.050781 L 52.566406 25.675781 L 52.253906 25.675781 L 52.253906 25.988281 L 51.941406 25.988281 L 51.941406 26.613281 L 51.628906 26.613281 L 51.628906 27.238281 L 51.316406 27.238281 L 51.316406 27.863281 L 51.003906 27.863281 L 51.003906 28.171875 L 50.691406 28.171875 L 50.691406 28.796875 L 50.378906 28.796875 L 50.378906 29.421875 L 50.066406 29.421875 L 50.066406 30.046875 L 49.757812 30.046875 L 49.757812 30.671875 L 49.445312 30.671875 L 49.445312 30.984375 L 49.132812 30.984375 L 49.132812 31.605469 L 48.820312 31.605469 L 48.820312 32.230469 L 48.507812 32.230469 L 48.507812 32.855469 L 48.195312 32.855469 L 48.195312 33.167969 L 47.882812 33.167969 L 47.882812 33.792969 L 47.570312 33.792969 L 47.570312 34.417969 L 47.257812 34.417969 L 47.257812 35.039062 L 46.945312 35.039062 L 46.945312 35.351562 L 46.636719 35.351562 L 46.636719 35.976562 L 46.324219 35.976562 L 46.324219 36.601562 L 46.011719 36.601562 L 46.011719 37.226562 L 45.699219 37.226562 L 45.699219 37.539062 L 45.386719 37.539062 L 45.386719 38.160156 L 45.074219 38.160156 L 45.074219 38.785156 L 44.761719 38.785156 L 44.761719 39.410156 L 44.449219 39.410156 L 44.449219 39.722656 L 44.136719 39.722656 L 44.136719 40.347656 L 43.824219 40.347656 L 43.824219 40.96875 L 43.515625 40.96875 L 43.515625 41.59375 L 43.203125 41.59375 L 43.203125 41.90625 L 42.890625 41.90625 L 42.890625 42.53125 L 42.578125 42.53125 L 42.578125 43.15625 L 42.265625 43.15625 L 42.265625 43.78125 L 41.953125 43.78125 L 41.953125 44.402344 L 41.640625 44.402344 L 41.640625 45.027344 L 41.328125 45.027344 L 41.328125 45.964844 L 41.015625 45.964844 L 41.015625 46.902344 L 40.703125 46.902344 L 40.703125 47.835938 L 40.394531 47.835938 L 40.394531 49.710938 L 40.082031 49.710938 L 40.082031 54.390625 L 40.394531 54.390625 L 40.394531 56.265625 L 40.703125 56.265625 L 40.703125 57.199219 L 41.015625 57.199219 L 41.015625 58.136719 L 41.328125 58.136719 L 41.328125 58.761719 L 41.640625 58.761719 L 41.640625 59.386719 L 41.953125 59.386719 L 41.953125 60.007812 L 42.265625 60.007812 L 42.265625 60.632812 L 42.578125 60.632812 L 42.578125 61.257812 L 42.890625 61.257812 L 42.890625 61.882812 L 43.203125 61.882812 L 43.203125 62.195312 L 43.515625 62.195312 L 43.515625 62.816406 L 43.824219 62.816406 L 43.824219 63.441406 L 44.136719 63.441406 L 44.136719 64.066406 L 44.449219 64.066406 L 44.449219 64.378906 L 44.761719 64.378906 L 44.761719 65.003906 L 45.074219 65.003906 L 45.074219 65.628906 L 45.386719 65.628906 L 45.386719 66.25 L 45.699219 66.25 L 45.699219 66.5625 L 46.011719 66.5625 L 46.011719 67.1875 L 46.324219 67.1875 L 46.324219 67.8125 L 46.636719 67.8125 L 46.636719 68.4375 L 46.945312 68.4375 L 46.945312 69.0625 L 47.257812 69.0625 L 47.257812 69.371094 L 47.570312 69.371094 L 47.570312 69.996094 L 47.882812 69.996094 L 47.882812 70.621094 L 48.195312 70.621094 L 48.195312 70.933594 L 48.507812 70.933594 L 48.507812 71.558594 L 48.820312 71.558594 L 48.820312 72.183594 L 49.132812 72.183594 L 49.132812 72.804688 L 49.445312 72.804688 L 49.445312 73.117188 L 49.757812 73.117188 L 49.757812 73.742188 L 50.066406 73.742188 L 50.066406 74.367188 L 50.378906 74.367188 L 50.378906 74.992188 L 50.691406 74.992188 L 50.691406 75.613281 L 51.003906 75.613281 L 51.003906 75.925781 L 51.316406 75.925781 L 51.316406 76.550781 L 51.628906 76.550781 L 51.628906 77.175781 L 51.941406 77.175781 L 51.941406 77.800781 L 52.253906 77.800781 L 52.253906 78.113281 L 52.566406 78.113281 L 52.566406 78.734375 L 52.878906 78.734375 L 52.878906 79.359375 L 53.1875 79.359375 L 53.1875 79.671875 L 53.5 79.671875 L 53.5 80.296875 L 53.8125 80.296875 L 53.8125 80.921875 L 54.125 80.921875 L 54.125 81.546875 L 54.4375 81.546875 L 54.4375 81.855469 L 54.75 81.855469 L 54.75 82.480469 L 55.0625 82.480469 L 55.0625 83.105469 L 55.375 83.105469 L 55.375 83.730469 L 55.6875 83.730469 L 55.6875 84.355469 L 56 84.355469 L 56 84.667969 L 56.308594 84.667969 L 56.308594 85.289062 L 56.621094 85.289062 L 56.621094 85.914062 L 56.933594 85.914062 L 56.933594 86.539062 L 57.246094 86.539062 L 57.246094 86.851562 L 57.558594 86.851562 L 57.558594 87.476562 L 57.871094 87.476562 L 57.871094 88.097656 L 58.183594 88.097656 L 58.183594 88.410156 L 58.496094 88.410156 L 58.496094 89.035156 L 58.808594 89.035156 L 58.808594 89.660156 L 59.121094 89.660156 L 59.121094 90.285156 L 59.429688 90.285156 L 59.429688 90.910156 L 59.742188 90.910156 L 59.742188 91.21875 L 60.054688 91.21875 L 60.054688 91.53125 L 60.367188 91.53125 L 60.367188 91.84375 L 60.679688 91.84375 L 60.679688 92.15625 L 60.992188 92.15625 L 60.992188 92.46875 L 61.304688 92.46875 L 61.304688 92.78125 L 61.617188 92.78125 L 61.617188 93.09375 L 61.929688 93.09375 L 61.929688 93.40625 L 62.242188 93.40625 L 62.242188 93.71875 L 62.550781 93.71875 L 62.550781 94.03125 L 62.863281 94.03125 L 62.863281 94.339844 L 63.175781 94.339844 L 63.175781 94.652344 L 63.800781 94.652344 L 63.800781 94.964844 L 64.113281 94.964844 L 64.113281 95.277344 L 64.738281 95.277344 L 64.738281 95.589844 L 65.363281 95.589844 L 65.363281 95.902344 L 65.984375 95.902344 L 65.984375 96.214844 L 66.609375 96.214844 L 66.609375 96.527344 L 67.234375 96.527344 L 67.234375 96.839844 L 68.171875 96.839844 L 68.171875 97.152344 L 69.105469 97.152344 L 69.105469 97.460938 L 70.355469 97.460938 L 70.355469 97.773438 L 70.980469 97.773438 L 70.980469 98.085938 L 70.042969 98.085938 L 70.042969 97.773438 L 60.054688 97.773438 L 60.054688 97.460938 L 58.808594 97.460938 L 58.808594 97.152344 L 57.871094 97.152344 L 57.871094 96.839844 L 56.933594 96.839844 L 56.933594 96.527344 L 56.308594 96.527344 L 56.308594 96.214844 L 55.6875 96.214844 L 55.6875 95.902344 L 55.0625 95.902344 L 55.0625 95.589844 L 54.75 95.589844 L 54.75 95.277344 L 54.125 95.277344 L 54.125 94.964844 L 53.8125 94.964844 L 53.8125 94.652344 L 53.1875 94.652344 L 53.1875 94.339844 L 52.878906 94.339844 L 52.878906 94.03125 L 52.566406 94.03125 L 52.566406 93.71875 L 52.253906 93.71875 L 52.253906 93.40625 L 51.941406 93.40625 L 51.941406 93.09375 L 51.316406 93.09375 L 51.316406 92.46875 L 50.691406 92.46875 L 50.691406 91.84375 L 50.378906 91.84375 L 50.378906 91.53125 L 50.066406 91.53125 L 50.066406 91.21875 L 49.757812 91.21875 L 49.757812 90.910156 L 49.445312 90.910156 L 49.445312 90.285156 L 49.132812 90.285156 L 49.132812 89.660156 L 48.820312 89.660156 L 48.820312 89.035156 L 48.507812 89.035156 L 48.507812 88.722656 L 48.195312 88.722656 L 48.195312 88.097656 L 47.882812 88.097656 L 47.882812 87.476562 L 47.570312 87.476562 L 47.570312 86.851562 L 47.257812 86.851562 L 47.257812 86.539062 L 46.945312 86.539062 L 46.945312 85.914062 L 46.636719 85.914062 L 46.636719 85.289062 L 46.324219 85.289062 L 46.324219 84.667969 L 46.011719 84.667969 L 46.011719 84.355469 L 45.699219 84.355469 L 45.699219 83.730469 L 45.386719 83.730469 L 45.386719 83.105469 L 45.074219 83.105469 L 45.074219 82.480469 L 44.761719 82.480469 L 44.761719 82.167969 L 44.449219 82.167969 L 44.449219 81.546875 L 44.136719 81.546875 L 44.136719 80.921875 L 43.824219 80.921875 L 43.824219 80.296875 L 43.515625 80.296875 L 43.515625 79.984375 L 43.203125 79.984375 L 43.203125 79.359375 L 42.890625 79.359375 L 42.890625 78.734375 L 42.578125 78.734375 L 42.578125 78.113281 L 42.265625 78.113281 L 42.265625 77.800781 L 41.953125 77.800781 L 41.953125 77.175781 L 41.640625 77.175781 L 41.640625 76.550781 L 41.328125 76.550781 L 41.328125 75.925781 L 41.015625 75.925781 L 41.015625 75.304688 L 40.703125 75.304688 L 40.703125 74.992188 L 40.394531 74.992188 L 40.394531 74.367188 L 40.082031 74.367188 L 40.082031 73.742188 L 39.769531 73.742188 L 39.769531 73.117188 L 39.457031 73.117188 L 39.457031 72.804688 L 39.144531 72.804688 L 39.144531 72.183594 L 38.832031 72.183594 L 38.832031 71.558594 L 38.519531 71.558594 L 38.519531 71.246094 L 38.207031 71.246094 L 38.207031 70.621094 L 37.894531 70.621094 L 37.894531 69.996094 L 37.582031 69.996094 L 37.582031 69.371094 L 37.273438 69.371094 L 37.273438 68.75 L 36.960938 68.75 L 36.960938 68.4375 L 36.648438 68.4375 L 36.648438 67.8125 L 36.335938 67.8125 L 36.335938 67.1875 L 36.023438 67.1875 L 36.023438 66.5625 L 35.710938 66.5625 L 35.710938 66.25 L 35.398438 66.25 L 35.398438 65.628906 L 35.085938 65.628906 L 35.085938 65.003906 L 34.773438 65.003906 L 34.773438 64.691406 L 34.460938 64.691406 L 34.460938 64.066406 L 34.148438 64.066406 L 34.148438 63.441406 L 33.839844 63.441406 L 33.839844 62.816406 L 33.527344 62.816406 L 33.527344 62.507812 L 33.214844 62.507812 L 33.214844 61.882812 L 32.902344 61.882812 L 32.902344 61.257812 L 32.589844 61.257812 L 32.589844 60.632812 L 32.277344 60.632812 L 32.277344 60.007812 L 31.964844 60.007812 L 31.964844 59.695312 L 31.652344 59.695312 L 31.652344 58.761719 L 31.339844 58.761719 L 31.339844 58.136719 L 31.027344 58.136719 L 31.027344 57.199219 L 30.71875 57.199219 L 30.71875 56.265625 L 30.40625 56.265625 L 30.40625 54.703125 L 30.09375 54.703125 L 30.09375 49.710938 L 30.40625 49.710938 L 30.40625 47.835938 L 30.71875 47.835938 L 30.71875 46.902344 L 31.027344 46.902344 L 31.027344 45.652344 L 31.339844 45.652344 L 31.339844 45.027344 L 31.652344 45.027344 L 31.652344 44.089844 L 31.964844 44.089844 L 31.964844 43.78125 L 32.277344 43.78125 L 32.277344 43.15625 L 32.589844 43.15625 L 32.589844 42.53125 L 32.902344 42.53125 L 32.902344 41.90625 L 33.214844 41.90625 L 33.214844 41.59375 L 33.527344 41.59375 L 33.527344 40.96875 L 33.839844 40.96875 L 33.839844 40.347656 L 34.148438 40.347656 L 34.148438 39.722656 L 34.460938 39.722656 L 34.460938 39.410156 L 34.773438 39.410156 L 34.773438 38.785156 L 35.085938 38.785156 L 35.085938 38.160156 L 35.398438 38.160156 L 35.398438 37.539062 L 35.710938 37.539062 L 35.710938 37.226562 L 36.023438 37.226562 L 36.023438 36.601562 L 36.335938 36.601562 L 36.335938 35.976562 L 36.648438 35.976562 L 36.648438 35.351562 L 36.960938 35.351562 L 36.960938 35.039062 L 37.273438 35.039062 L 37.273438 34.417969 L 37.582031 34.417969 L 37.582031 33.792969 L 37.894531 33.792969 L 37.894531 33.167969 L 38.207031 33.167969 L 38.207031 32.542969 L 38.519531 32.542969 L 38.519531 32.230469 L 38.832031 32.230469 L 38.832031 31.605469 L 39.144531 31.605469 L 39.144531 30.984375 L 39.457031 30.984375 L 39.457031 30.359375 L 39.769531 30.359375 L 39.769531 30.046875 L 40.082031 30.046875 L 40.082031 29.421875 L 40.394531 29.421875 L 40.394531 28.796875 L 40.703125 28.796875 L 40.703125 28.484375 L 41.015625 28.484375 L 41.015625 27.863281 L 41.328125 27.863281 L 41.328125 27.238281 L 41.640625 27.238281 L 41.640625 26.613281 L 41.953125 26.613281 L 41.953125 25.988281 L 42.265625 25.988281 L 42.265625 25.675781 L 42.578125 25.675781 L 42.578125 25.050781 L 42.890625 25.050781 L 42.890625 24.429688 L 43.203125 24.429688 L 43.203125 23.804688 L 43.515625 23.804688 L 43.515625 23.492188 L 43.824219 23.492188 L 43.824219 22.867188 L 44.136719 22.867188 L 44.136719 22.242188 L 44.449219 22.242188 L 44.449219 21.621094 L 44.761719 21.621094 L 44.761719 21.308594 L 45.074219 21.308594 L 45.074219 20.683594 L 45.386719 20.683594 L 45.386719 20.058594 L 45.699219 20.058594 L 45.699219 19.433594 L 46.011719 19.433594 L 46.011719 19.121094 L 46.324219 19.121094 L 46.324219 18.5 L 46.636719 18.5 L 46.636719 17.875 L 46.945312 17.875 L 46.945312 17.25 L 47.257812 17.25 L 47.257812 16.9375 L 47.570312 16.9375 L 47.570312 16.3125 L 47.882812 16.3125 L 47.882812 15.6875 L 48.195312 15.6875 L 48.195312 15.066406 L 48.507812 15.066406 L 48.507812 14.753906 L 48.820312 14.753906 L 48.820312 14.128906 L 49.132812 14.128906 L 49.132812 13.503906 L 49.445312 13.503906 L 49.445312 12.878906 L 49.757812 12.878906 L 49.757812 12.566406 L 50.066406 12.566406 L 50.066406 12.257812 L 50.378906 12.257812 L 50.378906 11.945312 L 50.691406 11.945312 L 50.691406 11.320312 L 51.003906 11.320312 L 51.003906 11.007812 L 51.316406 11.007812 L 51.316406 10.695312 L 51.628906 10.695312 L 51.628906 10.382812 L 51.941406 10.382812 L 51.941406 10.070312 L 52.566406 10.070312 L 52.566406 9.757812 L 52.878906 9.757812 L 52.878906 9.445312 L 53.1875 9.445312 L 53.1875 9.136719 L 53.5 9.136719 L 53.5 8.824219 L 54.125 8.824219 L 54.125 8.511719 L 54.75 8.511719 L 54.75 8.199219 L 55.0625 8.199219 L 55.0625 7.886719 L 55.6875 7.886719 L 55.6875 7.574219 L 56.308594 7.574219 L 56.308594 7.261719 L 56.933594 7.261719 L 56.933594 6.949219 L 57.871094 6.949219 L 57.871094 6.636719 L 58.808594 6.636719 L 58.808594 6.324219 L 59.742188 6.324219 L 59.742188 6.015625 L 60.992188 6.015625 Z M 130.28125 55.328125 L 130.59375 55.328125 L 130.59375 55.640625 L 133.714844 55.640625 L 133.714844 55.953125 L 135.273438 55.953125 L 135.273438 56.265625 L 136.210938 56.265625 L 136.210938 56.574219 L 137.148438 56.574219 L 137.148438 56.886719 L 137.773438 56.886719 L 137.773438 57.199219 L 138.394531 57.199219 L 138.394531 57.511719 L 139.019531 57.511719 L 139.019531 57.824219 L 139.644531 57.824219 L 139.644531 58.136719 L 139.957031 58.136719 L 139.957031 58.449219 L 140.582031 58.449219 L 140.582031 58.761719 L 140.894531 58.761719 L 140.894531 59.074219 L 141.207031 59.074219 L 141.207031 59.386719 L 141.515625 59.386719 L 141.515625 59.695312 L 142.140625 59.695312 L 142.140625 60.007812 L 142.453125 60.007812 L 142.453125 60.320312 L 142.765625 60.320312 L 142.765625 60.632812 L 143.078125 60.632812 L 143.078125 61.257812 L 143.390625 61.257812 L 143.390625 61.570312 L 143.703125 61.570312 L 143.703125 61.882812 L 144.015625 61.882812 L 144.015625 62.195312 L 144.328125 62.195312 L 144.328125 62.816406 L 144.636719 62.816406 L 144.636719 63.441406 L 144.949219 63.441406 L 144.949219 63.753906 L 145.261719 63.753906 L 145.261719 64.378906 L 145.574219 64.378906 L 145.574219 65.003906 L 145.886719 65.003906 L 145.886719 65.9375 L 146.199219 65.9375 L 146.199219 66.5625 L 146.511719 66.5625 L 146.511719 67.8125 L 146.824219 67.8125 L 146.824219 68.125 L 139.019531 68.125 L 139.019531 67.5 L 138.707031 67.5 L 138.707031 66.875 L 138.394531 66.875 L 138.394531 66.25 L 138.082031 66.25 L 138.082031 65.9375 L 137.773438 65.9375 L 137.773438 65.316406 L 137.460938 65.316406 L 137.460938 65.003906 L 137.148438 65.003906 L 137.148438 64.691406 L 136.835938 64.691406 L 136.835938 64.378906 L 136.210938 64.378906 L 136.210938 64.066406 L 135.898438 64.066406 L 135.898438 63.753906 L 135.273438 63.753906 L 135.273438 63.441406 L 134.652344 63.441406 L 134.652344 63.128906 L 133.714844 63.128906 L 133.714844 62.816406 L 132.464844 62.816406 L 132.464844 62.507812 L 128.410156 62.507812 L 128.410156 62.816406 L 127.472656 62.816406 L 127.472656 63.128906 L 126.535156 63.128906 L 126.535156 63.441406 L 125.910156 63.441406 L 125.910156 63.753906 L 125.597656 63.753906 L 125.597656 64.066406 L 124.976562 64.066406 L 124.976562 64.378906 L 124.664062 64.378906 L 124.664062 64.691406 L 124.351562 64.691406 L 124.351562 65.003906 L 124.039062 65.003906 L 124.039062 65.316406 L 123.726562 65.316406 L 123.726562 65.628906 L 123.414062 65.628906 L 123.414062 65.9375 L 123.101562 65.9375 L 123.101562 66.25 L 122.789062 66.25 L 122.789062 66.875 L 122.476562 66.875 L 122.476562 67.5 L 122.167969 67.5 L 122.167969 68.125 L 121.855469 68.125 L 121.855469 69.371094 L 121.542969 69.371094 L 121.542969 70.933594 L 121.230469 70.933594 L 121.230469 73.117188 L 121.542969 73.117188 L 121.542969 74.992188 L 121.855469 74.992188 L 121.855469 75.925781 L 122.167969 75.925781 L 122.167969 76.550781 L 122.476562 76.550781 L 122.476562 77.175781 L 122.789062 77.175781 L 122.789062 77.800781 L 123.101562 77.800781 L 123.101562 78.425781 L 123.414062 78.425781 L 123.414062 78.734375 L 123.726562 78.734375 L 123.726562 79.046875 L 124.039062 79.046875 L 124.039062 79.359375 L 124.351562 79.359375 L 124.351562 79.671875 L 124.664062 79.671875 L 124.664062 79.984375 L 124.976562 79.984375 L 124.976562 80.296875 L 125.597656 80.296875 L 125.597656 80.609375 L 126.222656 80.609375 L 126.222656 80.921875 L 126.847656 80.921875 L 126.847656 81.234375 L 127.785156 81.234375 L 127.785156 81.546875 L 129.03125 81.546875 L 129.03125 81.855469 L 132.152344 81.855469 L 132.152344 81.546875 L 133.402344 81.546875 L 133.402344 81.234375 L 134.339844 81.234375 L 134.339844 80.921875 L 134.960938 80.921875 L 134.960938 80.609375 L 135.585938 80.609375 L 135.585938 80.296875 L 136.210938 80.296875 L 136.210938 79.984375 L 136.523438 79.984375 L 136.523438 79.671875 L 136.835938 79.671875 L 136.835938 79.359375 L 137.148438 79.359375 L 137.148438 79.046875 L 137.460938 79.046875 L 137.460938 78.734375 L 137.773438 78.734375 L 137.773438 78.425781 L 138.082031 78.425781 L 138.082031 78.113281 L 138.394531 78.113281 L 138.394531 77.488281 L 138.707031 77.488281 L 138.707031 77.175781 L 139.019531 77.175781 L 139.019531 76.550781 L 139.332031 76.550781 L 139.332031 75.925781 L 146.824219 75.925781 L 146.824219 77.175781 L 146.511719 77.175781 L 146.511719 78.113281 L 146.199219 78.113281 L 146.199219 79.046875 L 145.886719 79.046875 L 145.886719 79.671875 L 145.574219 79.671875 L 145.574219 80.296875 L 145.261719 80.296875 L 145.261719 80.921875 L 144.949219 80.921875 L 144.949219 81.234375 L 144.636719 81.234375 L 144.636719 81.855469 L 144.328125 81.855469 L 144.328125 82.167969 L 144.015625 82.167969 L 144.015625 82.480469 L 143.703125 82.480469 L 143.703125 83.105469 L 143.390625 83.105469 L 143.390625 83.417969 L 143.078125 83.417969 L 143.078125 83.730469 L 142.765625 83.730469 L 142.765625 84.042969 L 142.453125 84.042969 L 142.453125 84.355469 L 142.140625 84.355469 L 142.140625 84.667969 L 141.828125 84.667969 L 141.828125 84.976562 L 141.515625 84.976562 L 141.515625 85.289062 L 140.894531 85.289062 L 140.894531 85.601562 L 140.582031 85.601562 L 140.582031 85.914062 L 139.957031 85.914062 L 139.957031 86.226562 L 139.644531 86.226562 L 139.644531 86.539062 L 139.019531 86.539062 L 139.019531 86.851562 L 138.394531 86.851562 L 138.394531 87.164062 L 137.773438 87.164062 L 137.773438 87.476562 L 136.835938 87.476562 L 136.835938 87.789062 L 135.898438 87.789062 L 135.898438 88.097656 L 134.960938 88.097656 L 134.960938 88.410156 L 133.402344 88.410156 L 133.402344 88.722656 L 127.785156 88.722656 L 127.785156 88.410156 L 125.910156 88.410156 L 125.910156 88.097656 L 124.976562 88.097656 L 124.976562 87.789062 L 124.039062 87.789062 L 124.039062 87.476562 L 123.101562 87.476562 L 123.101562 87.164062 L 122.476562 87.164062 L 122.476562 86.851562 L 121.855469 86.851562 L 121.855469 86.539062 L 121.542969 86.539062 L 121.542969 86.226562 L 120.917969 86.226562 L 120.917969 85.914062 L 120.605469 85.914062 L 120.605469 85.601562 L 119.980469 85.601562 L 119.980469 85.289062 L 119.667969 85.289062 L 119.667969 84.976562 L 119.355469 84.976562 L 119.355469 84.667969 L 119.046875 84.667969 L 119.046875 84.355469 L 118.734375 84.355469 L 118.734375 84.042969 L 118.421875 84.042969 L 118.421875 83.730469 L 118.109375 83.730469 L 118.109375 83.417969 L 117.796875 83.417969 L 117.796875 83.105469 L 117.484375 83.105469 L 117.484375 82.792969 L 117.171875 82.792969 L 117.171875 82.480469 L 116.859375 82.480469 L 116.859375 81.855469 L 116.546875 81.855469 L 116.546875 81.546875 L 116.234375 81.546875 L 116.234375 80.921875 L 115.925781 80.921875 L 115.925781 80.296875 L 115.613281 80.296875 L 115.613281 79.671875 L 115.300781 79.671875 L 115.300781 79.046875 L 114.988281 79.046875 L 114.988281 78.113281 L 114.675781 78.113281 L 114.675781 77.175781 L 114.363281 77.175781 L 114.363281 75.925781 L 114.050781 75.925781 L 114.050781 72.804688 L 113.738281 72.804688 L 113.738281 71.558594 L 114.050781 71.558594 L 114.050781 68.4375 L 114.363281 68.4375 L 114.363281 67.1875 L 114.675781 67.1875 L 114.675781 66.25 L 114.988281 66.25 L 114.988281 65.316406 L 115.300781 65.316406 L 115.300781 64.691406 L 115.613281 64.691406 L 115.613281 63.753906 L 115.925781 63.753906 L 115.925781 63.441406 L 116.234375 63.441406 L 116.234375 62.816406 L 116.546875 62.816406 L 116.546875 62.195312 L 116.859375 62.195312 L 116.859375 61.882812 L 117.171875 61.882812 L 117.171875 61.570312 L 117.484375 61.570312 L 117.484375 60.945312 L 117.796875 60.945312 L 117.796875 60.632812 L 118.109375 60.632812 L 118.109375 60.320312 L 118.421875 60.320312 L 118.421875 60.007812 L 118.734375 60.007812 L 118.734375 59.695312 L 119.046875 59.695312 L 119.046875 59.386719 L 119.355469 59.386719 L 119.355469 59.074219 L 119.980469 59.074219 L 119.980469 58.761719 L 120.292969 58.761719 L 120.292969 58.449219 L 120.605469 58.449219 L 120.605469 58.136719 L 121.230469 58.136719 L 121.230469 57.824219 L 121.855469 57.824219 L 121.855469 57.511719 L 122.167969 57.511719 L 122.167969 57.199219 L 123.101562 57.199219 L 123.101562 56.886719 L 123.726562 56.886719 L 123.726562 56.574219 L 124.664062 56.574219 L 124.664062 56.265625 L 125.597656 56.265625 L 125.597656 55.953125 L 126.847656 55.953125 L 126.847656 55.640625 L 130.28125 55.640625 Z M 130.28125 55.328125 "/><path style=" stroke:none;fill-rule:nonzero;fill:#000000;fill-opacity:1;" d="M 80.65625 15.6875 L 81.28125 15.6875 L 81.28125 16 L 84.402344 16 L 84.402344 16.3125 L 85.648438 16.3125 L 85.648438 16.625 L 86.585938 16.625 L 86.585938 16.9375 L 87.523438 16.9375 L 87.523438 17.25 L 88.144531 17.25 L 88.144531 17.5625 L 88.457031 17.5625 L 88.457031 17.875 L 89.082031 17.875 L 89.082031 18.1875 L 89.394531 18.1875 L 89.394531 18.5 L 90.019531 18.5 L 90.019531 18.808594 L 90.332031 18.808594 L 90.332031 19.121094 L 90.644531 19.121094 L 90.644531 19.433594 L 90.953125 19.433594 L 90.953125 19.746094 L 91.265625 19.746094 L 91.265625 20.058594 L 91.578125 20.058594 L 91.578125 20.683594 L 91.890625 20.683594 L 91.890625 20.996094 L 92.203125 20.996094 L 92.203125 21.621094 L 92.515625 21.621094 L 92.515625 22.554688 L 92.828125 22.554688 L 92.828125 23.179688 L 93.140625 23.179688 L 93.140625 24.742188 L 93.453125 24.742188 L 93.453125 26.300781 L 93.140625 26.300781 L 93.140625 26.613281 L 86.585938 26.613281 L 86.585938 26.300781 L 86.273438 26.300781 L 86.273438 25.050781 L 85.960938 25.050781 L 85.960938 24.117188 L 85.648438 24.117188 L 85.648438 23.804688 L 85.335938 23.804688 L 85.335938 23.179688 L 85.023438 23.179688 L 85.023438 22.867188 L 84.402344 22.867188 L 84.402344 22.554688 L 83.777344 22.554688 L 83.777344 22.242188 L 82.839844 22.242188 L 82.839844 21.929688 L 79.09375 21.929688 L 79.09375 22.242188 L 78.160156 22.242188 L 78.160156 22.554688 L 77.535156 22.554688 L 77.535156 22.867188 L 77.222656 22.867188 L 77.222656 23.179688 L 76.910156 23.179688 L 76.910156 23.492188 L 76.597656 23.492188 L 76.597656 23.804688 L 76.285156 23.804688 L 76.285156 26.300781 L 76.597656 26.300781 L 76.597656 26.925781 L 76.910156 26.925781 L 76.910156 27.238281 L 77.222656 27.238281 L 77.222656 27.550781 L 77.847656 27.550781 L 77.847656 27.863281 L 78.160156 27.863281 L 78.160156 28.171875 L 79.09375 28.171875 L 79.09375 28.484375 L 79.71875 28.484375 L 79.71875 28.796875 L 80.65625 28.796875 L 80.65625 29.109375 L 81.902344 29.109375 L 81.902344 29.421875 L 83.152344 29.421875 L 83.152344 29.734375 L 84.402344 29.734375 L 84.402344 30.046875 L 85.335938 30.046875 L 85.335938 30.359375 L 86.273438 30.359375 L 86.273438 30.671875 L 87.210938 30.671875 L 87.210938 30.984375 L 87.832031 30.984375 L 87.832031 31.292969 L 88.457031 31.292969 L 88.457031 31.605469 L 89.082031 31.605469 L 89.082031 31.917969 L 89.707031 31.917969 L 89.707031 32.230469 L 90.019531 32.230469 L 90.019531 32.542969 L 90.644531 32.542969 L 90.644531 32.855469 L 90.953125 32.855469 L 90.953125 33.167969 L 91.265625 33.167969 L 91.265625 33.480469 L 91.578125 33.480469 L 91.578125 33.792969 L 91.890625 33.792969 L 91.890625 34.105469 L 92.203125 34.105469 L 92.203125 34.417969 L 92.515625 34.417969 L 92.515625 34.726562 L 92.828125 34.726562 L 92.828125 35.351562 L 93.140625 35.351562 L 93.140625 35.976562 L 93.453125 35.976562 L 93.453125 36.601562 L 93.765625 36.601562 L 93.765625 38.160156 L 94.074219 38.160156 L 94.074219 40.660156 L 93.765625 40.660156 L 93.765625 42.21875 L 93.453125 42.21875 L 93.453125 43.15625 L 93.140625 43.15625 L 93.140625 43.78125 L 92.828125 43.78125 L 92.828125 44.402344 L 92.515625 44.402344 L 92.515625 44.714844 L 92.203125 44.714844 L 92.203125 45.339844 L 91.890625 45.339844 L 91.890625 45.652344 L 91.578125 45.652344 L 91.578125 45.964844 L 91.265625 45.964844 L 91.265625 46.277344 L 90.953125 46.277344 L 90.953125 46.589844 L 90.332031 46.589844 L 90.332031 46.902344 L 90.019531 46.902344 L 90.019531 47.210938 L 89.394531 47.210938 L 89.394531 47.523438 L 89.082031 47.523438 L 89.082031 47.835938 L 88.144531 47.835938 L 88.144531 48.148438 L 87.523438 48.148438 L 87.523438 48.460938 L 86.273438 48.460938 L 86.273438 48.773438 L 84.710938 48.773438 L 84.710938 49.085938 L 78.78125 49.085938 L 78.78125 48.773438 L 77.222656 48.773438 L 77.222656 48.460938 L 75.972656 48.460938 L 75.972656 48.148438 L 75.347656 48.148438 L 75.347656 47.835938 L 74.414062 47.835938 L 74.414062 47.523438 L 73.789062 47.523438 L 73.789062 47.210938 L 73.476562 47.210938 L 73.476562 46.902344 L 72.851562 46.902344 L 72.851562 46.589844 L 72.539062 46.589844 L 72.539062 46.277344 L 72.226562 46.277344 L 72.226562 45.964844 L 71.917969 45.964844 L 71.917969 45.652344 L 71.605469 45.652344 L 71.605469 45.339844 L 71.292969 45.339844 L 71.292969 45.027344 L 70.980469 45.027344 L 70.980469 44.714844 L 70.667969 44.714844 L 70.667969 44.402344 L 70.355469 44.402344 L 70.355469 43.78125 L 70.042969 43.78125 L 70.042969 43.15625 L 69.730469 43.15625 L 69.730469 42.53125 L 69.417969 42.53125 L 69.417969 41.90625 L 69.105469 41.90625 L 69.105469 40.660156 L 68.792969 40.660156 L 68.792969 38.160156 L 75.972656 38.160156 L 75.972656 39.722656 L 76.285156 39.722656 L 76.285156 40.347656 L 76.597656 40.347656 L 76.597656 40.96875 L 76.910156 40.96875 L 76.910156 41.28125 L 77.222656 41.28125 L 77.222656 41.59375 L 77.535156 41.59375 L 77.535156 41.90625 L 77.847656 41.90625 L 77.847656 42.21875 L 78.46875 42.21875 L 78.46875 42.53125 L 79.09375 42.53125 L 79.09375 42.84375 L 80.34375 42.84375 L 80.34375 43.15625 L 82.839844 43.15625 L 82.839844 42.84375 L 84.402344 42.84375 L 84.402344 42.53125 L 85.023438 42.53125 L 85.023438 42.21875 L 85.335938 42.21875 L 85.335938 41.90625 L 85.648438 41.90625 L 85.648438 41.59375 L 85.960938 41.59375 L 85.960938 41.28125 L 86.273438 41.28125 L 86.273438 40.660156 L 86.585938 40.660156 L 86.585938 38.785156 L 86.273438 38.785156 L 86.273438 38.160156 L 85.960938 38.160156 L 85.960938 37.847656 L 85.648438 37.847656 L 85.648438 37.539062 L 85.335938 37.539062 L 85.335938 37.226562 L 85.023438 37.226562 L 85.023438 36.914062 L 84.402344 36.914062 L 84.402344 36.601562 L 83.777344 36.601562 L 83.777344 36.289062 L 83.152344 36.289062 L 83.152344 35.976562 L 82.214844 35.976562 L 82.214844 35.664062 L 80.96875 35.664062 L 80.96875 35.351562 L 79.71875 35.351562 L 79.71875 35.039062 L 78.46875 35.039062 L 78.46875 34.726562 L 77.222656 34.726562 L 77.222656 34.417969 L 76.285156 34.417969 L 76.285156 34.105469 L 75.660156 34.105469 L 75.660156 33.792969 L 74.726562 33.792969 L 74.726562 33.480469 L 74.101562 33.480469 L 74.101562 33.167969 L 73.789062 33.167969 L 73.789062 32.855469 L 73.164062 32.855469 L 73.164062 32.542969 L 72.539062 32.542969 L 72.539062 32.230469 L 72.226562 32.230469 L 72.226562 31.917969 L 71.917969 31.917969 L 71.917969 31.605469 L 71.605469 31.605469 L 71.605469 31.292969 L 71.292969 31.292969 L 71.292969 30.984375 L 70.980469 30.984375 L 70.980469 30.671875 L 70.667969 30.671875 L 70.667969 30.359375 L 70.355469 30.359375 L 70.355469 29.734375 L 70.042969 29.734375 L 70.042969 29.421875 L 69.730469 29.421875 L 69.730469 28.484375 L 69.417969 28.484375 L 69.417969 27.550781 L 69.105469 27.550781 L 69.105469 23.179688 L 69.417969 23.179688 L 69.417969 21.929688 L 69.730469 21.929688 L 69.730469 21.308594 L 70.042969 21.308594 L 70.042969 20.683594 L 70.355469 20.683594 L 70.355469 20.371094 L 70.667969 20.371094 L 70.667969 19.746094 L 70.980469 19.746094 L 70.980469 19.433594 L 71.292969 19.433594 L 71.292969 19.121094 L 71.605469 19.121094 L 71.605469 18.808594 L 71.917969 18.808594 L 71.917969 18.5 L 72.226562 18.5 L 72.226562 18.1875 L 72.851562 18.1875 L 72.851562 17.875 L 73.164062 17.875 L 73.164062 17.5625 L 73.789062 17.5625 L 73.789062 17.25 L 74.414062 17.25 L 74.414062 16.9375 L 75.039062 16.9375 L 75.039062 16.625 L 75.972656 16.625 L 75.972656 16.3125 L 77.535156 16.3125 L 77.535156 16 L 80.65625 16 Z M 98.445312 16.625 L 119.355469 16.625 L 119.355469 22.554688 L 105.625 22.554688 L 105.625 29.109375 L 118.109375 29.109375 L 118.109375 35.351562 L 105.625 35.351562 L 105.625 42.21875 L 119.980469 42.21875 L 119.980469 48.460938 L 98.445312 48.460938 Z M 83.152344 56.265625 L 110.617188 56.265625 L 110.617188 62.816406 L 110.304688 62.816406 L 110.304688 63.128906 L 100.316406 63.128906 L 100.316406 88.097656 L 93.140625 88.097656 L 93.140625 63.128906 L 83.152344 63.128906 Z M 70.667969 56.265625 L 77.847656 56.265625 L 77.847656 88.097656 L 70.667969 88.097656 Z M 70.667969 56.265625 "/></g></svg>